{"asset":{"version":"2.0","generator":"VECTARY"},"nodes":[{"translation":[0.032308608560857426,0.04704941121674866,0.0075000000000000075],"scale":[0.001,0.001,0.001],"rotation":[-0.7071067811865475,0,0,0.7071067811865476],"name":"Sphere","mesh":0},{"translation":[-2.0655175740265688,1.582264033698474,4.381519564802997],"scale":[1,1.0000000000000002,1],"rotation":[-0.15007008355256177,-0.23547524790877658,-0.03682870448501829,0.9595175997191416],"name":"Camera","camera":0},{"translation":[0.0022397381242466132,0.030586455272733924,5.3290705182007515e-18],"scale":[0.0005220901208617977,0.0005000001157480489,0.0004999905390363893],"rotation":[-1.6653345369377348e-16,-2.7755575615628914e-17,-0.3904174142207367,0.9206379541780763],"name":"Box","mesh":1},{"translation":[-0.025020779013656246,-0.01060426263395902,0.007499999999999997],"scale":[0.001,0.00099998933344711,0.001],"rotation":[-0.6416636887178392,0.2970988229209531,-0.297098822920953,0.6416636887178393],"name":"Box 1","mesh":2},{"translation":[-0.014826476941022754,0.039868786533015406,0.0075000000000000075],"scale":[0.001,0.00099998933344711,0.001],"rotation":[-0.7002653408147952,-0.09812467810667543,0.09812467810667541,0.7002653408147953],"name":"Box 2","mesh":3},{"translation":[0.023575711023574614,0.01696627317347395,0.007500000000000003],"scale":[0.001,0.00099998933344711,0.001],"rotation":[-0.5862778961426373,0.39532041244358107,-0.395320412443581,0.5862778961426373],"name":"Box 3","mesh":4},{"translation":[-0.021179192626814235,-0.034784473543351985,0.0074999999999999945],"scale":[0.001,0.00099998933344711,0.001],"rotation":[-0.7057077376364295,-0.04445884658954281,0.0444588465895428,0.7057077376364296],"name":"Box 4","mesh":5},{"translation":[-0.008505326980951378,-0.046514180428465265,0.007499999999999996],"scale":[0.001,0.00099998933344711,0.001],"rotation":[-0.6317306597538699,-0.3176733755399408,0.31767337553994074,0.63173065975387],"name":"Box 5","mesh":6}],"materials":[{"pbrMetallicRoughness":{"baseColorFactor":[0,0,0,1],"metallicFactor":0,"roughnessFactor":0.2},"name":"Mimosa","emissiveFactor":[0,0,0],"extensions":{},"alphaMode":"OPAQUE","doubleSided":false},{"pbrMetallicRoughness":{"baseColorFactor":[1,0,0,1],"metallicFactor":0,"roughnessFactor":0.2},"name":"Lifeline","emissiveFactor":[0,0,0],"extensions":{},"alphaMode":"OPAQUE","doubleSided":false},{"pbrMetallicRoughness":{"baseColorFactor":[0.07176144884623908,0.48776520187781053,1,1],"metallicFactor":0,"roughnessFactor":0.2},"name":"Butterfly Garden","emissiveFactor":[0,0,0],"extensions":{},"alphaMode":"OPAQUE","doubleSided":false},{"pbrMetallicRoughness":{"baseColorFactor":[0,0,0,1],"metallicFactor":0,"roughnessFactor":0.2},"name":"Butterfly Garden 1","emissiveFactor":[0,0,0],"extensions":{},"alphaMode":"OPAQUE","doubleSided":false},{"pbrMetallicRoughness":{"baseColorFactor":[0,0,0,1],"metallicFactor":0,"roughnessFactor":0.2},"name":"Butterfly Garden 2","emissiveFactor":[0,0,0],"extensions":{},"alphaMode":"OPAQUE","doubleSided":false},{"pbrMetallicRoughness":{"baseColorFactor":[0,0,0,1],"metallicFactor":0,"roughnessFactor":0.2},"name":"Butterfly Garden 3","emissiveFactor":[0,0,0],"extensions":{},"alphaMode":"OPAQUE","doubleSided":false},{"pbrMetallicRoughness":{"baseColorFactor":[0,0,0,1],"metallicFactor":0,"roughnessFactor":0.2},"name":"Butterfly Garden 4","emissiveFactor":[0,0,0],"extensions":{},"alphaMode":"OPAQUE","doubleSided":false}],"meshes":[{"primitives":[{"mode":4,"attributes":{"POSITION":1,"NORMAL":2,"TEXCOORD_0":3},"material":0,"indices":0}]},{"primitives":[{"mode":4,"attributes":{"POSITION":5,"NORMAL":6,"TEXCOORD_0":7},"material":1,"indices":4}]},{"primitives":[{"mode":4,"attributes":{"POSITION":9,"NORMAL":10,"TEXCOORD_0":11},"material":2,"indices":8}]},{"primitives":[{"mode":4,"attributes":{"POSITION":13,"NORMAL":14,"TEXCOORD_0":15},"material":3,"indices":12}]},{"primitives":[{"mode":4,"attributes":{"POSITION":17,"NORMAL":18,"TEXCOORD_0":19},"material":4,"indices":16}]},{"primitives":[{"mode":4,"attributes":{"POSITION":21,"NORMAL":22,"TEXCOORD_0":23},"material":5,"indices":20}]},{"primitives":[{"mode":4,"attributes":{"POSITION":25,"NORMAL":26,"TEXCOORD_0":27},"material":6,"indices":24}]}],"accessors":[{"bufferView":0,"byteOffset":0,"componentType":5125,"count":11904,"type":"SCALAR"},{"bufferView":1,"byteOffset":0,"componentType":5126,"count":2143,"max":[13.199999809265137,13.199999809265137,26.399999618530273],"min":[-13.199999809265137,-13.199999809265137,1.9073486612342094e-7],"type":"VEC3"},{"bufferView":2,"byteOffset":0,"componentType":5126,"count":2143,"type":"VEC3"},{"bufferView":3,"byteOffset":0,"componentType":5126,"count":2143,"type":"VEC2"},{"bufferView":4,"byteOffset":0,"componentType":5125,"count":38412,"type":"SCALAR"},{"bufferView":5,"byteOffset":0,"componentType":5126,"count":6796,"max":[27.5,50,30],"min":[-27.5,-50,0],"type":"VEC3"},{"bufferView":6,"byteOffset":0,"componentType":5126,"count":6796,"type":"VEC3"},{"bufferView":7,"byteOffset":0,"componentType":5126,"count":6796,"type":"VEC2"},{"bufferView":8,"byteOffset":0,"componentType":5125,"count":2700,"type":"SCALAR"},{"bufferView":9,"byteOffset":0,"componentType":5126,"count":556,"max":[22.5,7.5,21],"min":[-22.5,-7.5,0],"type":"VEC3"},{"bufferView":10,"byteOffset":0,"componentType":5126,"count":556,"type":"VEC3"},{"bufferView":11,"byteOffset":0,"componentType":5126,"count":556,"type":"VEC2"},{"bufferView":12,"byteOffset":0,"componentType":5125,"count":2700,"type":"SCALAR"},{"bufferView":13,"byteOffset":0,"componentType":5126,"count":556,"max":[21.5,7.5,10],"min":[-21.5,-7.5,0],"type":"VEC3"},{"bufferView":14,"byteOffset":0,"componentType":5126,"count":556,"type":"VEC3"},{"bufferView":15,"byteOffset":0,"componentType":5126,"count":556,"type":"VEC2"},{"bufferView":16,"byteOffset":0,"componentType":5125,"count":2700,"type":"SCALAR"},{"bufferView":17,"byteOffset":0,"componentType":5126,"count":556,"max":[21.5,7.5,10],"min":[-21.5,-7.5,0],"type":"VEC3"},{"bufferView":18,"byteOffset":0,"componentType":5126,"count":556,"type":"VEC3"},{"bufferView":19,"byteOffset":0,"componentType":5126,"count":556,"type":"VEC2"},{"bufferView":20,"byteOffset":0,"componentType":5125,"count":2700,"type":"SCALAR"},{"bufferView":21,"byteOffset":0,"componentType":5126,"count":556,"max":[26.5,7.5,17],"min":[-26.5,-7.5,0],"type":"VEC3"},{"bufferView":22,"byteOffset":0,"componentType":5126,"count":556,"type":"VEC3"},{"bufferView":23,"byteOffset":0,"componentType":5126,"count":556,"type":"VEC2"},{"bufferView":24,"byteOffset":0,"componentType":5125,"count":2700,"type":"SCALAR"},{"bufferView":25,"byteOffset":0,"componentType":5126,"count":556,"max":[28.5,7.5,17],"min":[-28.5,-7.5,0],"type":"VEC3"},{"bufferView":26,"byteOffset":0,"componentType":5126,"count":556,"type":"VEC3"},{"bufferView":27,"byteOffset":0,"componentType":5126,"count":556,"type":"VEC2"}],"bufferViews":[{"buffer":0,"byteOffset":0,"byteLength":47616,"target":34963},{"buffer":0,"byteOffset":47616,"byteLength":25716,"target":34962},{"buffer":0,"byteOffset":73332,"byteLength":25716,"target":34962},{"buffer":0,"byteOffset":99048,"byteLength":17144,"target":34962},{"buffer":0,"byteOffset":116192,"byteLength":153648,"target":34963},{"buffer":0,"byteOffset":269840,"byteLength":81552,"target":34962},{"buffer":0,"byteOffset":351392,"byteLength":81552,"target":34962},{"buffer":0,"byteOffset":432944,"byteLength":54368,"target":34962},{"buffer":0,"byteOffset":487312,"byteLength":10800,"target":34963},{"buffer":0,"byteOffset":498112,"byteLength":6672,"target":34962},{"buffer":0,"byteOffset":504784,"byteLength":6672,"target":34962},{"buffer":0,"byteOffset":511456,"byteLength":4448,"target":34962},{"buffer":0,"byteOffset":515904,"byteLength":10800,"target":34963},{"buffer":0,"byteOffset":526704,"byteLength":6672,"target":34962},{"buffer":0,"byteOffset":533376,"byteLength":6672,"target":34962},{"buffer":0,"byteOffset":540048,"byteLength":4448,"target":34962},{"buffer":0,"byteOffset":544496,"byteLength":10800,"target":34963},{"buffer":0,"byteOffset":555296,"byteLength":6672,"target":34962},{"buffer":0,"byteOffset":561968,"byteLength":6672,"target":34962},{"buffer":0,"byteOffset":568640,"byteLength":4448,"target":34962},{"buffer":0,"byteOffset":573088,"byteLength":10800,"target":34963},{"buffer":0,"byteOffset":583888,"byteLength":6672,"target":34962},{"buffer":0,"byteOffset":590560,"byteLength":6672,"target":34962},{"buffer":0,"byteOffset":597232,"byteLength":4448,"target":34962},{"buffer":0,"byteOffset":601680,"byteLength":10800,"target":34963},{"buffer":0,"byteOffset":612480,"byteLength":6672,"target":34962},{"buffer":0,"byteOffset":619152,"byteLength":6672,"target":34962},{"buffer":0,"byteOffset":625824,"byteLength":4448,"target":34962}],"cameras":[{"name":"Camera","type":"perspective","extras":{"targetDistance":5.204685161111228},"perspective":{"aspectRatio":1.3975363941769317,"yfov":0.6108652381980153,"zfar":217.759812103437,"znear":0.02561261674500818}}],"scene":0,"scenes":[{"nodes":[0,1,2,3,4,5,6,7],"name":"Project Name"}],"extensionsUsed":["KHR_texture_transform"],"buffers":[{"byteLength":630272,"uri":"ProjectName.bin"}]}